<?xml version="1.0" standalone="no"?>
<!DOCTYPE svg PUBLIC "-//W3C//DTD SVG 20010904//EN"
 "http://www.w3.org/TR/2001/REC-SVG-20010904/DTD/svg10.dtd">
<svg version="1.0" xmlns="http://www.w3.org/2000/svg"
 width="500.000000pt" height="500.000000pt" viewBox="0 0 500.000000 500.000000"
 preserveAspectRatio="xMidYMid meet">

<g transform="translate(0.000000,500.000000) scale(0.100000,-0.100000)"
fill="#000000" stroke="none">
<path d="M2320 4129 c-19 -6 -69 -14 -110 -19 -84 -9 -118 -18 -175 -47 l-38
-20 39 -7 c59 -11 119 -40 152 -75 41 -43 56 -103 48 -198 -16 -202 -18 -338
-6 -392 43 -199 195 -355 426 -436 48 -18 53 -18 118 0 81 22 84 18 -74 102
-262 141 -347 228 -381 390 -10 51 -10 71 1 119 22 90 63 143 144 184 63 32
76 35 150 34 48 -1 98 -8 124 -17 l42 -16 -29 57 c-17 31 -45 91 -64 133 -61
136 -149 206 -270 214 -34 2 -78 -1 -97 -6z m118 -81 c19 -19 14 -55 -10 -72
-19 -13 -25 -14 -43 -2 -26 17 -31 49 -10 70 19 19 46 21 63 4z"/>
<path d="M1862 3954 c-40 -28 -19 -79 30 -72 18 2 24 10 26 35 4 41 -24 60
-56 37z"/>
<path d="M2004 3835 c-24 -37 -6 -75 36 -75 40 0 59 40 35 76 -20 31 -50 30
-71 -1z"/>
<path d="M1692 3838 c-22 -22 -15 -67 12 -80 29 -13 51 -6 65 20 23 42 -43 94
-77 60z"/>
<path d="M1859 3827 c-28 -15 -36 -50 -18 -83 22 -42 75 -40 98 5 25 46 -32
101 -80 78z"/>
<path d="M2526 3686 c-48 -18 -92 -59 -118 -110 -16 -31 -19 -53 -16 -110 8
-146 83 -231 323 -361 126 -68 159 -88 240 -144 99 -69 263 -234 313 -314 44
-72 50 -60 27 50 -70 321 -277 751 -426 887 -107 97 -245 138 -343 102z"/>
<path d="M1842 3647 c-17 -21 4 -274 30 -346 35 -101 35 -95 -4 -71 -19 11
-44 30 -54 41 -19 21 -19 20 -31 -62 -27 -194 -8 -318 64 -427 65 -97 163
-146 318 -157 127 -10 119 -4 139 -92 10 -43 24 -89 31 -103 14 -24 14 -22 15
33 0 64 -22 210 -45 302 -40 157 -92 240 -199 320 -105 77 -155 130 -183 193
-23 51 -27 74 -32 217 -5 135 -8 160 -22 163 -9 1 -21 -3 -27 -11z"/>
<path d="M2394 2969 c-4 -7 -5 -140 -3 -298 2 -157 3 -533 1 -836 l-2 -550
-217 3 c-254 3 -336 -4 -341 -31 -3 -17 12 -17 260 -15 145 2 271 7 281 12 15
7 17 3 17 -32 0 -29 -5 -42 -17 -47 -10 -3 -98 -5 -196 -4 -143 2 -181 -1
-187 -12 -21 -34 7 -39 206 -39 l194 0 0 -144 c0 -146 6 -170 35 -146 11 9 15
45 17 148 l3 137 228 3 c195 2 229 5 234 18 3 8 2 19 -3 24 -5 4 -110 10 -234
13 l-225 4 0 32 0 32 225 0 c124 -1 259 -4 301 -7 90 -8 133 6 105 34 -15 15
-53 17 -326 17 l-310 0 0 465 c0 255 3 481 6 501 l6 37 62 7 c158 17 238 80
310 242 37 85 47 155 36 259 -5 47 -11 88 -13 90 -6 7 -170 -52 -232 -84 -61
-30 -127 -86 -157 -132 -16 -24 -17 -18 -17 136 -1 138 -3 163 -17 168 -21 8
-22 8 -30 -5z"/>
<path d="M2911 2868 c11 -57 10 -232 -1 -288 -5 -25 -14 -103 -20 -175 -24
-293 -89 -457 -237 -602 -41 -40 -70 -73 -64 -73 5 0 31 9 58 20 164 69 307
199 382 348 68 135 83 199 82 349 -1 205 -44 330 -143 417 -29 25 -56 46 -59
46 -3 0 -3 -19 2 -42z"/>
<path d="M3203 2484 c-3 -8 -1 -20 6 -27 8 -8 11 -4 11 16 0 30 -7 35 -17 11z"/>
<path d="M1837 2423 c-11 -61 -8 -197 4 -255 15 -71 61 -160 109 -212 70 -76
183 -121 320 -128 l65 -3 -1 135 c-1 131 -2 137 -34 203 -34 72 -101 140 -175
180 -38 20 -231 103 -266 114 -12 3 -18 -5 -22 -34z"/>
<path d="M3187 2318 c-7 -26 8 -58 28 -58 11 0 15 12 15 40 0 33 -4 40 -19 40
-11 0 -21 -9 -24 -22z"/>
<path d="M3161 2178 c-5 -13 -19 -50 -30 -83 -20 -56 -67 -137 -109 -186 -31
-37 -168 -146 -213 -170 -72 -38 -15 -36 65 2 140 67 272 225 325 388 6 19 11
42 11 52 0 27 -38 24 -49 -3z"/>
<path d="M1822 1638 c-16 -16 -15 -33 2 -47 22 -18 48 -2 44 28 -3 28 -27 38
-46 19z"/>
<path d="M1954 1635 c-9 -23 3 -45 24 -45 28 0 43 20 31 42 -12 22 -47 24 -55
3z"/>
</g>
</svg>
