<?xml version="1.0" standalone="no"?>
<!DOCTYPE svg PUBLIC "-//W3C//DTD SVG 20010904//EN"
 "http://www.w3.org/TR/2001/REC-SVG-20010904/DTD/svg10.dtd">
<svg version="1.0" xmlns="http://www.w3.org/2000/svg"
 width="500.000000pt" height="500.000000pt" viewBox="0 0 500.000000 500.000000"
 preserveAspectRatio="xMidYMid meet">

<g transform="translate(0.000000,500.000000) scale(0.100000,-0.100000)"
fill="#000000" stroke="none">
<path d="M1815 4268 c-50 -29 -57 -69 -23 -129 24 -43 41 -53 68 -39 53 28 79
120 43 153 -25 22 -65 29 -88 15z"/>
<path d="M1968 4183 c-9 -10 -26 -38 -38 -62 -21 -43 -21 -45 -4 -58 32 -24
70 -16 103 22 35 40 40 74 13 98 -24 22 -55 22 -74 0z"/>
<path d="M1646 4174 c-20 -20 -21 -73 -1 -101 21 -30 66 -38 105 -18 25 13 30
20 24 38 -10 34 -36 81 -48 89 -19 13 -64 9 -80 -8z"/>
<path d="M2324 4132 c-145 -50 -237 -209 -265 -456 -19 -172 13 -324 101 -481
54 -95 158 -205 248 -259 34 -20 62 -42 62 -47 0 -5 -20 -18 -45 -30 -41 -19
-55 -35 -112 -125 -10 -17 -12 -16 -23 14 -30 81 -106 223 -168 311 -210 302
-243 377 -270 624 -15 133 -18 147 -35 147 -19 0 -20 -6 -13 -122 13 -209 57
-335 188 -536 49 -75 97 -146 107 -157 23 -26 81 -125 114 -195 40 -85 77
-203 87 -283 5 -40 10 -459 10 -943 0 -738 2 -873 14 -883 10 -9 16 -9 21 -1
4 6 7 454 6 995 -2 980 -1 984 19 1021 34 59 86 97 153 109 20 4 37 3 37 -1 0
-5 -23 -28 -50 -52 -74 -63 -98 -135 -65 -192 l14 -25 1 30 c0 49 41 117 88
150 36 25 55 30 115 33 40 2 88 0 107 -5 30 -8 37 -16 49 -54 8 -24 37 -102
64 -174 72 -190 100 -285 146 -500 39 -179 60 -574 38 -705 -7 -45 -7 -44 27
25 133 275 169 608 100 940 -24 119 -30 140 -58 201 -48 104 -128 169 -351
285 -183 94 -262 148 -335 225 -132 142 -180 246 -180 394 0 76 4 94 30 146
16 32 44 74 61 93 34 35 120 81 154 81 35 0 41 13 41 77 -1 71 17 98 88 131
45 21 212 62 253 62 22 0 24 2 13 15 -29 35 -140 77 -218 82 -53 4 -91 14
-121 30 -56 29 -170 31 -247 5z m190 -84 c8 -14 6 -22 -10 -38 -27 -27 -54
-17 -54 20 0 41 42 53 64 18z"/>
<path d="M1813 4033 c-27 -5 -63 -53 -63 -82 0 -12 7 -33 16 -46 13 -20 25
-25 59 -25 36 0 48 5 69 31 14 17 26 37 26 45 0 25 -30 74 -44 74 -8 0 -20 2
-28 4 -7 2 -23 1 -35 -1z"/>
<path d="M2500 3650 c0 -5 -4 -10 -9 -10 -22 0 -81 -49 -111 -91 -71 -104 -60
-238 29 -376 79 -122 181 -206 374 -306 272 -141 418 -264 509 -427 71 -126
58 -31 -24 179 -38 97 -55 137 -124 287 -33 72 -167 304 -227 393 -128 191
-194 268 -279 322 -48 31 -138 50 -138 29z"/>
<path d="M1722 3238 c-7 -7 -12 -24 -12 -38 0 -29 32 -50 76 -50 14 0 71 -23
127 -51 120 -60 151 -73 142 -59 -9 15 -165 105 -208 121 -27 9 -37 19 -37 34
0 43 -60 71 -88 43z"/>
<path d="M1870 2961 c-23 -44 -5 -81 38 -81 48 0 68 58 30 84 -30 21 -55 20
-68 -3z"/>
<path d="M2052 2788 c-30 -38 -22 -87 18 -108 25 -13 76 10 85 40 6 20 -9 59
-29 72 -18 12 -63 9 -74 -4z"/>
<path d="M1716 2593 c-7 -158 0 -226 32 -310 63 -165 170 -272 383 -383 l106
-56 6 126 c10 227 -25 371 -122 500 -47 62 -150 156 -166 151 -4 -2 -11 1 -14
6 -15 22 -71 53 -85 47 -10 -4 -18 0 -22 10 -3 9 -10 13 -15 10 -5 -3 -7 -10
-3 -16 3 -5 -8 -2 -26 7 -18 9 -35 25 -37 36 -3 10 -11 19 -18 19 -9 0 -14
-39 -19 -147z m169 47 c3 -6 -1 -7 -9 -4 -18 7 -21 14 -7 14 6 0 13 -4 16 -10z"/>
<path d="M1774 2705 c10 -8 23 -12 29 -8 11 7 -12 23 -33 23 -12 -1 -11 -4 4
-15z"/>
<path d="M2705 2624 c-33 -18 -67 -36 -75 -40 -8 -4 -21 -15 -28 -23 -11 -13
-12 -13 -6 -1 4 8 -14 -5 -40 -30 -48 -46 -83 -100 -106 -161 -13 -37 -29
-269 -18 -269 3 0 44 17 90 38 134 62 210 144 249 267 14 45 16 198 3 232 -9
21 -9 21 -69 -13z"/>
<path d="M3334 2266 c11 -30 22 -53 24 -51 7 7 -19 83 -32 94 -9 8 -6 -7 8
-43z"/>
<path d="M2878 2108 c-7 -7 -22 -15 -33 -16 -11 -2 -22 -6 -25 -9 -3 -3 5 -4
17 -1 26 7 36 -12 20 -39 -61 -101 -78 -113 -82 -56 -2 26 1 31 16 28 11 -2
20 -1 20 3 1 4 3 17 4 30 2 21 1 22 -16 6 -16 -14 -21 -15 -36 -3 -14 12 -16
12 -8 0 6 -11 4 -13 -7 -8 -18 6 -61 -20 -53 -33 3 -4 -4 -6 -15 -3 -12 3 -22
-1 -26 -11 -3 -9 -10 -14 -15 -11 -13 8 -110 -96 -146 -156 -55 -92 -75 -190
-74 -368 0 -84 2 -155 4 -157 10 -11 205 108 267 162 69 60 148 172 181 256
32 79 33 90 37 241 4 157 0 173 -30 145z m-98 -167 c0 -3 -4 -12 -9 -19 -6
-10 -10 -7 -13 11 -4 18 -1 24 9 20 7 -3 13 -8 13 -12z m-44 -69 c-17 -16 -18
-16 -5 5 7 12 15 20 18 17 3 -2 -3 -12 -13 -22z"/>
<path d="M1830 1816 c0 -92 21 -210 48 -265 50 -103 146 -179 277 -221 22 -7
44 -16 50 -21 20 -19 25 -7 25 59 0 148 -35 255 -111 337 -53 57 -104 88 -209
125 l-80 28 0 -42z"/>
<path d="M2584 1182 c-6 -4 -16 -17 -23 -30 -10 -19 -10 -28 4 -48 27 -42 95
-25 95 25 0 43 -44 75 -76 53z"/>
<path d="M2036 1158 c-21 -29 -20 -41 2 -61 37 -34 82 -15 82 33 0 51 -55 69
-84 28z"/>
</g>
</svg>
