<?xml version="1.0" standalone="no"?>
<!DOCTYPE svg PUBLIC "-//W3C//DTD SVG 20010904//EN"
 "http://www.w3.org/TR/2001/REC-SVG-20010904/DTD/svg10.dtd">
<svg version="1.0" xmlns="http://www.w3.org/2000/svg"
 width="500.000000pt" height="500.000000pt" viewBox="0 0 500.000000 500.000000"
 preserveAspectRatio="xMidYMid meet">

<g transform="translate(0.000000,500.000000) scale(0.100000,-0.100000)"
fill="#000000" stroke="none">
<path d="M2073 4196 c-108 -34 -188 -120 -243 -261 -21 -54 -24 -76 -24 -220
-1 -123 3 -172 16 -212 64 -200 207 -361 415 -466 28 -15 54 -35 56 -44 9 -31
6 -362 -3 -368 -10 -6 -93 59 -138 109 -37 41 -52 45 -52 14 0 -14 34 -55 98
-117 l97 -96 -2 -901 c-3 -756 -1 -903 11 -919 12 -17 16 -17 31 -5 16 13 16
83 13 1000 -3 1133 -17 995 110 1118 41 39 83 72 94 72 26 0 150 -72 212 -123
28 -23 107 -89 176 -148 69 -59 163 -132 210 -164 47 -32 93 -67 102 -79 31
-37 22 6 -26 128 -50 129 -79 188 -143 298 -51 87 -31 78 -223 103 -315 42
-423 66 -518 114 -84 43 -138 81 -204 147 -100 99 -139 211 -124 357 13 121
103 210 241 238 l62 12 -22 33 c-12 18 -28 53 -35 77 -11 41 -10 50 6 84 24
47 101 96 199 124 119 35 118 33 51 64 -47 22 -81 29 -170 36 -155 11 -224 10
-273 -5z m135 -80 c9 -42 -58 -64 -78 -26 -12 22 0 55 22 63 18 6 52 -17 56
-37z m217 -1174 c57 -28 57 -29 -11 -99 -35 -37 -66 -65 -69 -61 -3 3 -3 47 1
97 8 101 6 100 79 63z"/>
<path d="M2682 4059 c-54 -21 -79 -82 -58 -134 14 -33 59 -65 91 -65 29 0 74
30 90 60 30 59 10 119 -47 139 -36 13 -45 13 -76 0z"/>
<path d="M2707 3723 c-4 -21 -7 -80 -7 -130 0 -83 2 -95 23 -115 l22 -23 8 75
c4 41 6 109 5 150 -3 68 -5 75 -24 78 -18 3 -22 -4 -27 -35z"/>
<path d="M2235 3705 c-81 -21 -150 -112 -162 -213 -19 -161 138 -359 342 -430
85 -30 239 -59 385 -72 122 -11 289 -40 360 -62 19 -6 49 -21 65 -33 17 -12
37 -26 45 -30 15 -8 2 4 -157 154 -43 41 -216 210 -386 375 -188 184 -320 306
-340 313 -42 15 -90 15 -152 -2z"/>
<path d="M2883 3607 c-28 -12 -36 -33 -23 -58 14 -26 55 -24 74 3 26 37 -8 75
-51 55z"/>
<path d="M1660 3329 c-14 -26 3 -49 35 -49 12 0 28 6 34 14 18 21 -3 56 -34
56 -14 0 -29 -8 -35 -21z"/>
<path d="M1790 3078 c0 -85 3 -99 33 -158 40 -81 89 -113 166 -108 l51 3 -50
65 c-27 36 -78 97 -114 135 -61 66 -81 105 -54 105 16 0 200 -188 224 -228 10
-18 22 -32 26 -32 4 0 12 19 18 42 22 81 -18 166 -100 208 -35 18 -167 60
-189 60 -7 0 -11 -30 -11 -92z"/>
<path d="M2600 2775 c-120 -60 -184 -224 -134 -343 l15 -37 20 25 c11 14 50
66 86 115 37 50 81 102 97 118 29 25 72 44 81 36 2 -2 -33 -51 -77 -109 -80
-104 -158 -215 -158 -223 0 -15 71 -15 118 -1 86 28 159 113 176 207 4 21 10
45 13 53 4 10 -24 44 -83 100 -49 46 -93 83 -99 83 -5 -1 -30 -11 -55 -24z"/>
<path d="M1627 2653 c-4 -3 -7 -28 -7 -55 0 -43 2 -48 23 -48 35 0 78 -31 184
-137 93 -93 203 -224 302 -362 24 -34 46 -59 48 -57 13 13 33 121 33 179 0
119 -49 228 -141 312 -80 73 -166 114 -329 154 -90 23 -103 24 -113 14z"/>
<path d="M1623 2394 c8 -193 46 -291 151 -387 84 -77 206 -115 320 -100 l59 8
-68 100 c-121 178 -262 339 -392 446 l-76 63 6 -130z"/>
<path d="M2803 2160 c-125 -23 -235 -84 -289 -163 -49 -72 -71 -140 -81 -259
-9 -119 -11 -118 59 -52 51 48 268 214 353 269 76 50 204 115 227 115 16 0 37
-20 21 -20 -4 -1 -29 -20 -55 -44 -27 -23 -60 -49 -75 -57 -113 -58 -433 -294
-433 -320 0 -19 81 -31 181 -27 92 3 112 8 170 36 80 39 169 125 205 200 20
42 26 74 30 145 3 51 6 108 8 128 l4 37 -57 5 c-122 13 -218 15 -268 7z"/>
<path d="M1651 1686 c-9 -11 -8 -18 4 -30 15 -14 41 -15 223 -10 114 4 211 10
216 15 5 4 6 15 3 23 -6 14 -35 16 -220 16 -171 0 -217 -3 -226 -14z"/>
<path d="M2170 1674 c0 -8 5 -12 10 -9 6 3 10 10 10 16 0 5 -4 9 -10 9 -5 0
-10 -7 -10 -16z"/>
<path d="M1782 1548 l3 -23 210 0 c203 0 210 1 210 20 0 19 -8 20 -213 23
l-213 2 3 -22z"/>
<path d="M1943 1443 c-7 -3 -13 -13 -13 -23 0 -15 11 -20 65 -25 77 -9 135 0
135 20 0 24 -37 36 -108 34 -37 -1 -73 -4 -79 -6z"/>
<path d="M2442 1439 c-13 -5 -22 -15 -20 -21 4 -10 69 -14 264 -18 142 -3 269
-2 282 2 19 7 21 11 12 28 -10 19 -20 20 -263 19 -139 0 -263 -4 -275 -10z"/>
<path d="M2424 1305 c-4 -8 -1 -22 6 -30 11 -13 58 -15 304 -15 160 0 297 4
304 9 8 5 12 17 10 27 -3 18 -19 19 -311 22 -268 2 -308 0 -313 -13z"/>
</g>
</svg>
